<?xml version="1.0" encoding="utf-8"?>
<!-- Designed by Vexels.com - 2019 All Rights Reserved - https://vexels.com/terms-and-conditions/  -->
<svg version="1.1" id="Capa_1" xmlns="http://www.w3.org/2000/svg" xmlns:xlink="http://www.w3.org/1999/xlink" x="0px" y="0px"
	 viewBox="0 0 1200 1200" enable-background="new 0 0 1200 1200" xml:space="preserve">
<g>
	<path fill="#7E1F31" d="M662.893,977.162c-0.74-0.464,0.654-3.851,2.511-9.28c0.953-2.71,1.929-5.975,2.907-9.617
		c0.926-3.663,1.82-7.716,2.57-12.031c1.452-8.633,2.174-16.613,2.833-22.432c0.651-5.814,1.283-9.466,2.114-9.477
		c0.797-0.012,1.641,3.618,2.057,9.57c0.404,5.939,0.338,14.249-1.188,23.337c-0.788,4.537-1.9,8.809-3.181,12.608
		c-1.335,3.783-2.796,7.102-4.303,9.742C666.235,974.892,663.525,977.572,662.893,977.162"/>
	<path fill="#A23216" d="M787.896,137.3l-27.352,12.776c6.418,9.842,11.211,20.663,14.637,32.11
		c5.948,19.762,7.885,41.363,7.297,62.887c-1.506,41.091-11.877,82.063-32.051,120.119c-38.565,72.396-58.64,152.17-60.05,232.276
		c-1.428,80.125,15.771,160.563,51.735,234.29c18.822,38.741,27.704,80.046,27.765,121.176c-0.217,28.39-4.832,56.743-17.043,80.557
		c-4.13,8.042-9.137,15.554-15.126,22.384l27.454,19.644c3.443,2.466,4.421,6.4,3.5,9.823c-0.92,3.427-3.756,6.323-7.981,6.713
		l-7.24,0.684l-7.259,0.664c-2.839,0.274-5.205,1.78-6.672,3.916c-1.469,2.131-2.055,4.89-1.291,7.63l2.581,9.314l2.585,9.332
		c1.075,3.876-0.45,7.457-3.131,9.588c-2.68,2.131-6.497,2.798-10.058,0.879l-7.045-3.854l-7.064-3.833
		c-2.386-1.311-5.048-1.429-7.395-0.607c-2.348,0.82-4.363,2.583-5.4,5.085l-2.857,6.771l-2.133,5.031l-0.722,1.739
		c-1.646,3.916-5.284,5.753-8.825,5.597c-3.56-0.158-7.007-2.309-8.298-6.359c-3.462-10.861-7.63-23.971-11.426-35.984
		c-2.291-7.299-4.442-14.166-6.223-19.88c-14.166-0.195-29.212-2.855-44.729-8.238c-1.565-0.528-3.133-1.094-4.696-1.702
		c-47.157-17.532-96.679-61.03-126.127-121.801c-55.823-114.409-82.513-239.263-80.301-363.59
		c2.21-124.345,33.342-248.163,93.195-360.514c27.863-52.635,70.871-91.298,113.39-110.553c5.692-2.581,11.367-4.811,17.001-6.67
		c9.724-3.289,19.253-5.578,28.51-6.889c10.487-1.487,20.602-1.702,30.191-0.743c2.835-5.42,6.319-11.974,10.036-18.959
		c5.911-11.114,12.425-23.245,17.808-33.283c2.015-3.756,5.812-5.225,9.331-4.736c3.504,0.509,6.751,2.973,7.652,7.123l1.565,7.181
		l1.564,7.181c0.57,2.642,2.232,4.754,4.383,5.988c2.153,1.232,4.814,1.603,7.378,0.763l7.652-2.486l7.63-2.484
		c3.854-1.252,7.492,0.116,9.744,2.699c2.23,2.583,3.072,6.38,1.309,9.998l-4.245,8.689l-4.245,8.687
		c-1.252,2.565-1.195,5.382-0.138,7.749c1.059,2.368,3.111,4.286,5.85,5.069l7.007,1.995l7.003,1.976
		c4.07,1.175,6.32,4.539,6.615,8.082C793.417,131.821,791.733,135.52,787.896,137.3"/>
	<path fill="#7E1F31" d="M618.08,1079.53c-1.566-0.528-3.132-1.094-4.696-1.701c-47.157-17.532-96.68-61.03-126.127-121.802
		c-55.823-114.408-82.513-239.262-80.302-363.588c2.212-124.346,33.342-248.164,93.196-360.515
		c27.861-52.635,70.87-91.298,113.389-110.552l-0.217,0.45c-5.968,11.838-21.269,21.837-30.309,31.326
		c-13.931,14.656-28.078,31.327-39.621,47.939c-43.418,62.535-79.362,127.829-96.699,203.082
		c-28.842,125.09-29.251,255.305,2.624,379.574c15.75,61.379,38.761,120.294,77.698,170.405
		c24.948,32.147,55.766,58.621,77.329,93.803C610.37,1057.793,616.709,1068.103,618.08,1079.53z"/>
	<path fill="#B65640" d="M775.181,182.186c-171.072,68.053-291.996,235.132-291.996,430.446
		c0,186.705,110.494,347.602,269.649,420.859c12.21-23.813,16.826-52.167,17.043-80.557c-0.061-41.13-8.943-82.436-27.765-121.176
		c-34.56-70.847-51.791-147.892-51.817-224.9c-0.001-3.13,0.026-6.261,0.082-9.391c1.41-80.105,21.485-159.879,60.05-232.276
		c20.174-38.056,30.544-79.029,32.051-120.119c0.064-2.354,0.098-4.709,0.1-7.063C782.594,218.846,780.479,199.786,775.181,182.186
		L775.181,182.186"/>
	<path fill="#7E1F31" d="M696.277,327.957c0.189,0.7-0.195,1.518-1.143,2.444c-0.95,0.908-2.458,2.016-4.535,2.965
		c-4.127,2.05-10.509,3.959-18.573,4.806c-8.053,0.846-17.76,0.617-28.318-1.221c-5.258-0.999-10.747-2.304-16.301-4.167
		c-5.545-1.887-11.193-4.193-16.756-7.097c-5.547-2.937-10.752-6.287-15.501-9.959c-4.726-3.715-8.932-7.823-12.586-12.071
		c-3.593-4.326-6.583-8.825-8.885-13.316c-1.115-2.264-2.104-4.502-2.917-6.693c-0.716-2.246-1.523-4.325-1.911-6.449
		c-1.92-8.369-1.523-15.31-0.38-19.827c1.193-4.541,2.802-6.784,4.202-6.669c3.171,0.201,4.033,9.739,10.183,21.516
		c0.671,1.501,1.705,2.939,2.568,4.49c0.965,1.51,2.034,3.04,3.158,4.591c2.327,3.071,5.065,6.152,8.188,9.192
		c3.207,2.979,6.747,5.942,10.702,8.735c3.99,2.754,8.315,5.388,12.929,7.836c4.636,2.42,9.351,4.489,13.982,6.344
		c4.646,1.834,9.252,3.316,13.675,4.67c8.892,2.544,17.129,4.186,24.144,5.231C686.216,325.423,695.415,325.001,696.277,327.957z"/>
	<path fill="#7E1F31" d="M665.376,487.218c0.182,1.443-2.578,3.194-7.688,5.154c-5.118,1.977-12.573,4.232-21.994,6.532
		c-9.424,2.267-20.875,4.578-34.069,5.763c-13.169,1.095-28.215,0.897-43.583-2.393c-1.926-0.366-3.827-0.789-5.689-1.313
		c-1.868-0.499-3.726-0.994-5.567-1.486c-3.681-1.102-7.184-2.315-10.582-3.602c-6.787-2.573-13.126-5.465-19.032-8.541
		c-11.792-6.165-21.81-13.207-29.23-20.547c-7.442-7.306-12.043-15.076-13.572-21.005c-1.581-5.968-0.481-9.46,0.845-9.668
		c1.506-0.289,3.181,2.314,6.446,5.953c3.241,3.67,8.334,8.399,15.735,13.25c7.381,4.849,16.945,9.842,28.056,14.508
		c5.554,2.323,11.487,4.596,17.687,6.66c3.095,1.032,6.26,2.018,9.419,2.894c1.605,0.4,3.22,0.802,4.846,1.209
		c1.617,0.443,3.267,0.8,4.934,1.111c26.516,5.669,52.166,3.144,71.29,2.487c9.552-0.397,17.44-0.426,22.938,0.084
		C662.079,484.79,665.196,485.781,665.376,487.218z"/>
	<path fill="#7E1F31" d="M636.852,629.84c0.777,1.171-0.839,3.965-4.895,7.694c-4.031,3.758-10.676,8.198-19.652,12.233
		c-8.96,4.059-20.336,7.344-33.241,9.038c-6.448,0.766-13.276,1.252-20.34,1.107c-7.06-0.137-14.36-0.735-21.748-1.883
		c-7.381-1.201-14.493-2.878-21.235-4.901c-6.742-2.037-13.073-4.528-18.972-7.163c-11.736-5.436-21.625-11.724-29.108-18
		c-7.502-6.254-12.762-12.193-15.728-16.815c-3.008-4.592-3.902-7.693-2.866-8.645c2.291-2.093,11.337,4.907,26.911,13.14
		c7.759,4.166,17.281,8.467,28.108,12.385c5.449,1.876,11.198,3.726,17.258,5.28c6.062,1.538,12.39,2.888,18.925,3.956
		c13.083,2.038,25.697,2.692,37.13,2.241c11.427-0.502,21.688-1.938,30.21-3.844C624.687,631.961,635.123,627.232,636.852,629.84z"
		/>
	<path fill="#7E1F31" d="M615.458,808.118c0.792,1.214-0.294,3.454-3.115,6.556c-0.706,0.774-1.519,1.602-2.435,2.48
		c-0.918,0.877-2.029,1.63-3.198,2.512c-1.182,0.86-2.467,1.757-3.853,2.686c-0.699,0.453-1.401,0.965-2.167,1.39
		c-0.774,0.405-1.57,0.824-2.385,1.251c-1.639,0.845-3.376,1.71-5.206,2.591c-1.811,0.946-3.829,1.517-5.871,2.302
		c-2.068,0.689-4.181,1.585-6.448,2.109c-2.276,0.536-4.614,1.09-7.013,1.654c-9.683,1.819-20.664,2.525-32.027,1.182
		c-11.35-1.439-21.846-4.683-30.824-8.735c-4.415-2.222-8.6-4.288-12.176-6.841c-1.804-1.236-3.6-2.319-5.17-3.604
		c-1.568-1.291-3.05-2.544-4.443-3.754c-2.857-2.317-5.005-4.953-6.922-7.143c-0.933-1.126-1.819-2.139-2.527-3.183
		c-0.686-1.068-1.281-2.066-1.785-2.984c-2.014-3.679-2.544-6.112-1.491-7.107c1.053-0.997,3.58-0.491,7.094,1.143
		c0.88,0.41,1.819,0.89,2.814,1.437c1.038,0.498,2.156,1.036,3.353,1.611c2.394,1.133,4.854,2.694,7.86,3.958
		c1.465,0.684,2.975,1.416,4.526,2.192c1.553,0.772,3.295,1.358,4.994,2.107c3.368,1.581,7.182,2.746,11.06,4.181
		c7.92,2.48,16.726,4.64,26.154,5.852c9.447,1.107,18.508,1.051,26.778,0.513c2.055-0.223,4.072-0.42,6.043-0.588
		c1.98-0.135,3.831-0.609,5.683-0.849c1.823-0.337,3.67-0.435,5.341-0.884c1.69-0.386,3.331-0.736,4.917-1.051
		c0.796-0.152,1.575-0.302,2.336-0.448c0.757-0.152,1.463-0.39,2.173-0.564c1.414-0.375,2.767-0.708,4.054-1
		c1.276-0.311,2.536-0.489,3.632-0.787c1.098-0.298,2.126-0.545,3.076-0.736C612.093,806.801,614.669,806.902,615.458,808.118z"/>
	<path fill="#7E1F31" d="M704.598,919.838c0.283,0.135-0.221,2.104-1.888,5.354c-1.615,3.276-4.689,7.693-9.415,12.281
		c-4.726,4.586-11.296,9.061-19.199,12.665c-3.971,1.753-8.265,3.286-12.804,4.561c-4.556,1.203-9.349,2.143-14.297,2.754
		c-9.913,1.167-19.474,0.843-28.007-0.427c-8.529-1.349-16.033-3.604-22.011-6.227c-5.981-2.634-10.456-5.522-13.263-7.836
		c-2.838-2.28-4.112-3.866-3.909-4.108c0.549-0.721,6.723,4.335,18.538,8.488c5.882,2.072,13.126,3.853,21.299,4.885
		c8.184,0.955,17.294,1.118,26.731,0.009c4.711-0.586,9.267-1.442,13.605-2.516c4.318-1.141,8.407-2.495,12.204-4.031
		c7.547-3.162,13.896-7.028,18.644-10.992c4.741-3.964,8.089-7.783,10.159-10.604C703.107,921.303,704.231,919.654,704.598,919.838z
		"/>
	<path fill="#7E1F31" d="M669.585,602.281c-0.362,0-0.654-4.366-0.873-12.286c-0.017-3.957-0.015-8.803,0.109-14.428
		c0.21-5.62,0.42-12.028,0.978-19.092c1.969-28.244,7.703-67.25,20.109-108.761c1.538-5.187,3.104-10.3,4.782-15.296
		c1.592-5.024,3.357-9.906,5.052-14.719c1.686-4.814,3.542-9.471,5.256-14.068c0.927-2.285,1.843-4.545,2.75-6.779
		c0.961-2.207,1.911-4.389,2.849-6.545c7.75-17.116,15.606-31.946,21.291-44.792c5.803-12.793,9.499-23.527,11.642-31.076
		c0.53-1.883,1.002-3.562,1.414-5.027c0.365-1.454,0.676-2.694,0.931-3.716c0.536-2.008,0.905-3.056,1.083-3.028
		c0.18,0.028,0.161,1.129-0.041,3.212c-0.103,1.041-0.24,2.331-0.444,3.849c-0.279,1.514-0.598,3.25-0.957,5.197
		c-0.787,3.9-1.989,8.624-3.642,14.03c-1.729,5.378-3.84,11.469-6.571,18.021c-5.309,13.176-12.865,28.269-20.272,45.278
		c-0.897,2.137-1.804,4.299-2.722,6.487c-0.867,2.205-1.742,4.435-2.626,6.69c-1.652,4.577-3.452,9.208-5.09,13.992
		c-1.645,4.783-3.372,9.631-4.932,14.616c-1.647,4.956-3.188,10.025-4.713,15.166c-12.29,41.129-18.545,79.626-21.447,107.596
		c-0.787,6.993-1.255,13.342-1.744,18.916c-0.388,5.57-0.723,10.375-0.997,14.324C670.346,597.916,669.947,602.281,669.585,602.281z
		"/>
	<path fill="#7E1F31" d="M682.754,704.346c-0.534,0.365-3.917-3.647-7.055-11.316c-3.228-7.613-5.987-18.697-7.551-31.068
		c-1.508-12.383-1.626-23.691-1.025-31.832c0.566-8.153,1.776-13.107,2.463-13.034c0.757,0.076,0.867,5.072,1.253,13.078
		c0.354,8.006,1.051,19.047,2.527,31.139c1.527,12.079,3.627,22.89,5.846,30.497C681.328,699.449,683.44,703.926,682.754,704.346z"
		/>
	<path fill="#7E1F31" d="M656.416,646.729c-0.734-0.005-1.362-4.705-1.924-12.305c-0.547-7.6-1.058-18.122-0.94-29.806
		c0.124-11.683,1.064-22.299,2.465-29.879c1.371-7.591,3.018-12.107,3.692-11.968c0.749,0.151,0.405,4.859,0,12.399
		c-0.438,7.542-0.777,17.952-0.901,29.51c-0.118,11.558-0.197,22.075-0.601,29.704C657.819,642.015,657.134,646.734,656.416,646.729
		z"/>
	<ellipse fill="#7E1F31" cx="664.647" cy="527.378" rx="2.628" ry="5.762"/>
	<path fill="#7E1F31" d="M766.711,197.31c-1.622,0.434-5.191-14.461-15.96-29.093c-5.356-7.304-11.204-13.215-15.458-17.542
		c-4.273-4.31-6.907-7.096-6.444-7.69c0.427-0.55,3.872,1.198,8.881,4.885c4.972,3.694,11.547,9.454,17.266,17.25
		c5.717,7.806,9.076,16.03,10.674,22.068C767.254,193.264,767.363,197.161,766.711,197.31z"/>
	<path fill="#7E1F31" d="M723.911,88.658c0.547,0.501,0.105,1.968-0.744,4.156c-0.865,2.191-2.195,5.133-3.853,8.367
		c-1.663,3.222-3.385,6.089-4.955,8.04c-1.532,1.96-3.059,2.959-3.619,2.484c-0.553-0.47-0.326-1.889,0.333-4.221
		c0.682-2.303,1.871-5.413,3.574-8.717c1.69-3.301,3.64-6.151,5.41-7.986C721.824,88.929,723.39,88.177,723.911,88.658z"/>
	<path fill="#7E1F31" d="M745.311,95.244c0.328,0.7-1.197,2.034-3.295,4.189c-2.128,2.148-4.683,5.309-7.371,9.219
		c-2.681,3.907-5.303,7.608-7.65,9.972c-2.332,2.388-4.215,3.437-4.732,2.959c-0.551-0.505,0.283-2.358,1.729-5.148
		c1.476-2.783,3.494-6.632,6.343-10.789c1.442-2.066,3.018-3.963,4.629-5.543c1.632-1.57,3.297-2.808,4.816-3.638
		C742.836,94.795,745.041,94.631,745.311,95.244z"/>
	<path fill="#7E1F31" d="M753.542,114.999c0.26,0.692-0.809,1.77-2.566,3.151c-1.768,1.375-4.224,3.118-7.053,4.999
		c-5.616,3.821-10.955,6.274-11.781,5.019c-0.768-1.172,2.99-5.394,8.879-9.399c2.965-1.975,5.987-3.366,8.33-3.961
		C751.697,114.2,753.295,114.332,753.542,114.999z"/>
	<path fill="#7E1F31" d="M694.278,1114.256c-0.626,0.32-2.31-1.495-4.174-4.908c-1.871-3.4-3.825-8.379-5.41-13.95
		c-1.596-5.573-2.669-10.636-3.357-14.319c-0.667-3.688-0.914-6.058-0.227-6.332c0.661-0.266,2.162,1.699,3.769,5.206
		c1.626,3.499,3.293,8.495,4.865,13.991c1.568,5.502,2.887,10.43,3.814,14.038C694.475,1111.585,694.945,1113.921,694.278,1114.256z
		"/>
	<path fill="#7E1F31" d="M710.74,1110.965c-0.663,0.255-2.143-1.808-3.638-5.457c-1.519-3.636-3.003-8.784-4.556-14.343
		c-1.564-5.556-3.089-10.415-4.543-13.77c-1.39-3.374-2.619-5.382-2.077-5.94c0.446-0.498,2.823,0.755,5.292,4.076
		c2.512,3.276,4.767,8.446,6.384,14.201c1.611,5.768,2.506,11,3.08,14.782C711.227,1108.297,711.433,1110.699,710.74,1110.965z"/>
	<path fill="#7E1F31" d="M728.849,1086.27c-0.523,0.487-2.349-0.541-4.614-2.784c-2.28-2.225-4.936-5.601-7.74-9.22
		c-2.812-3.619-5.395-6.661-7.459-8.696c-2.027-2.059-3.516-3.274-3.235-3.992c0.227-0.635,2.424-0.588,5.414,0.985
		c1.514,0.749,3.089,1.941,4.73,3.364c1.59,1.459,3.192,3.19,4.687,5.101c2.971,3.838,5.123,7.527,6.573,10.228
		C728.637,1083.969,729.392,1085.771,728.849,1086.27z"/>
	<path fill="#7E1F31" d="M742.018,1073.101c-1.049,1.01-7.152-3.415-14.832-8.634c-7.643-5.273-13.851-9.808-13.154-11.12
		c0.654-1.253,8.154,1.291,16.142,6.796C738.219,1065.615,743.078,1072.11,742.018,1073.101z"/>
	<path fill="#7E1F31" d="M730.495,1033.592c0.629,0.204,0.03,4.174-2.887,9.814c-1.411,2.838-3.492,5.983-6.036,9.304
		c-2.615,3.258-5.781,6.626-9.486,9.767c-3.76,3.074-7.686,5.618-11.534,7.45c-3.906,1.705-7.611,2.924-10.882,3.181
		c-6.551,0.716-10.387-1.109-10.207-1.652c0.154-0.852,3.941-0.468,9.518-2.001c2.808-0.654,5.983-2.1,9.385-3.849
		c3.364-1.888,6.869-4.322,10.355-7.167c3.434-2.913,6.491-5.955,9.149-8.851c2.583-2.952,4.852-5.693,6.573-8.128
		C727.974,1036.646,729.752,1033.323,730.495,1033.592z"/>
	<path fill="#7E1F31" d="M748.604,994.082c-0.865-0.418,3.132-8.372,5.766-22.181c0.305-1.731,0.689-3.527,0.982-5.417
		c0.202-1.907,0.41-3.889,0.626-5.942c0.112-1.023,0.225-2.066,0.341-3.123c0.039-1.068,0.079-2.152,0.12-3.25
		c0.079-2.197,0.161-4.458,0.245-6.774c-0.105-9.293-0.901-19.495-2.662-30.099c-1.913-10.578-4.541-20.491-7.373-29.38
		c-3.072-8.797-6.069-16.674-9.179-23.018c-5.991-12.807-10.97-20.113-10.269-20.624c0.45-0.367,6.581,6.262,13.581,18.937
		c3.606,6.275,7.043,14.186,10.445,23.123c3.16,9.027,6.009,19.18,7.976,30.064c1.813,10.915,2.488,21.473,2.323,31.075
		c-0.163,2.396-0.322,4.732-0.476,7.006c-0.086,1.133-0.172,2.25-0.255,3.351c-0.165,1.092-0.328,2.169-0.489,3.226
		c-0.33,2.109-0.648,4.147-0.955,6.109c-0.412,1.941-0.922,3.784-1.356,5.547c-0.474,1.755-0.813,3.449-1.356,4.996
		c-0.566,1.534-1.103,2.982-1.607,4.342c-0.511,1.339-0.989,2.589-1.431,3.745c-0.519,1.12-1.079,2.109-1.549,3.008
		C750.129,992.381,748.926,994.247,748.604,994.082z"/>
	<path fill="#7E1F31" d="M679.461,1054.994c0.088-0.873,4.623-0.335,10.814-3.216c6.215-2.735,13.632-9.031,20.233-17.447
		c6.646-8.396,11.442-16.985,14.604-23.307c3.183-6.333,4.634-10.513,5.382-10.357c0.676,0.12,0.472,4.797-1.952,11.79
		c-2.403,6.959-6.877,16.239-13.918,25.139c-3.522,4.434-7.354,8.336-11.329,11.359c-3.932,3.063-8.049,5.172-11.717,6.302
		c-3.675,1.154-6.875,1.238-8.98,0.92C680.482,1055.886,679.412,1055.309,679.461,1054.994z"/>
	<path fill="#EBE6E8" d="M621.104,141.96c0.534,0.661-11.47,10.446-29.05,28.104c-17.481,17.661-40.743,43.34-60.624,75.607
		c-4.887,8.052-9.409,16.235-13.851,24.043c-4.428,7.82-8.634,15.385-12.543,22.64c-7.86,14.488-14.349,27.815-19.351,39.206
		c-10.016,22.797-13.675,37.868-14.557,37.638c-0.311-0.074,0.208-3.937,1.901-10.762c1.658-6.829,4.61-16.597,9.224-28.299
		c4.612-11.696,10.827-25.339,18.502-40.046c3.816-7.364,7.954-15.019,12.332-22.892c4.393-7.864,8.851-16.013,13.862-24.275
		c20.235-32.831,44.227-58.4,62.521-75.528c9.192-8.561,17.015-15.055,22.586-19.321
		C617.636,143.817,620.892,141.691,621.104,141.96z"/>
	<path fill="#EBE6E8" d="M671.097,127.19c-0.277,0.724-2.285,0.567-5.288,0.729c-1.502,0.034-3.289,0.275-5.249,0.543
		c-1.969,0.329-4.123,0.79-6.39,1.368c-9.048,2.43-16.43,5.544-17.159,4.178c-0.339-0.627,1.105-2.188,3.889-4.023
		c2.778-1.826,6.931-3.914,11.944-5.24c2.51-0.642,4.987-1.015,7.272-1.105c2.295-0.031,4.376,0.118,6.081,0.583
		C669.632,125.077,671.355,126.573,671.097,127.19z"/>
	<path fill="#EBE6E8" d="M517.712,286.256c0.65,0.254,0.56,2.355-0.592,5.398c-1.13,3.047-3.391,6.871-6.094,10.706
		c-2.542,3.591-4.844,6.843-6.802,9.605c-1.705,2.448-2.832,4.05-3.555,3.831c-0.665-0.195-0.77-2.309,0.208-5.447
		c0.952-3.139,3.1-7.108,5.837-10.993c2.737-3.887,5.309-7.132,7.163-9.517C515.743,287.475,517.015,285.979,517.712,286.256z"/>
	<path fill="#EBE6E8" d="M600.652,505.54c0.204,0.65-3.396,2.447-9.642,3.658c-6.219,1.262-15.005,1.863-24.661,0.978
		c-9.634-0.973-18.298-3.415-23.953-6.656c-5.74-3.148-8.119-6.664-7.643-7.068c0.575-0.592,3.602,1.671,9.203,3.695
		c5.549,2.141,13.718,3.866,22.904,4.8c9.203,0.841,17.629,0.849,23.708,0.562C596.656,505.275,600.438,504.801,600.652,505.54z"/>
	<path fill="#EBE6E8" d="M633.602,328.295c-0.15,0.684-3.261,0.719-8.13-0.236c-4.859-0.948-11.47-2.983-18.272-6.442
		c-3.387-1.746-6.478-3.689-9.153-5.637c-2.649-1.994-4.912-3.952-6.622-5.791c-3.46-3.649-4.919-6.447-4.406-6.89
		c0.577-0.509,2.973,1.345,6.839,4.082c3.859,2.758,9.323,6.276,15.737,9.558C622.43,323.493,633.943,326.774,633.602,328.295z"/>
	<path fill="#EBE6E8" d="M539.299,650.972c-0.004,0.695-4.41,1.406-11.61,1.526c-7.169,0.067-17.26-0.463-28.048-3.511
		c-5.371-1.549-10.322-3.628-14.602-5.908c-1.053-0.596-2.081-1.18-3.083-1.747c-0.985-0.591-1.896-1.236-2.793-1.826
		c-1.819-1.151-3.353-2.448-4.788-3.568c-5.601-4.688-8.242-8.366-7.793-8.826c0.551-0.588,4.074,2.094,9.966,5.811
		c1.506,0.88,3.083,1.943,4.897,2.873c0.899,0.478,1.804,1.016,2.769,1.503c0.974,0.473,1.976,0.958,2.999,1.454
		c4.14,1.91,8.81,3.72,13.875,5.181c10.149,2.872,19.798,3.98,26.799,4.852C534.903,649.611,539.305,650.217,539.299,650.972z"/>
	<path fill="#EBE6E8" d="M524.529,814.582c-0.146,0.716-3.645,0.699-9.228,0.195c-5.573-0.53-13.304-1.491-21.743-3.709
		c-4.209-1.135-8.158-2.555-11.637-4.112c-3.475-1.57-6.457-3.323-8.814-4.983c-4.715-3.357-6.946-6.199-6.523-6.706
		c0.496-0.614,3.499,1.141,8.405,3.501c2.463,1.171,5.414,2.473,8.778,3.711c3.37,1.225,7.128,2.426,11.157,3.514
		c8.07,2.126,15.61,3.66,21.031,5.127C521.382,812.563,524.671,813.876,524.529,814.582z"/>
	<path fill="#EBE6E8" d="M509.758,932.746c-0.341,0.167-1.989-2.488-4.985-7.24c-2.969-4.777-7.465-11.547-12.749-20.195
		c-2.628-4.331-5.408-9.168-8.055-14.574c-2.671-5.408-5.06-11.384-7.304-17.719c-4.509-12.701-8.276-26.759-13.944-40.96
		c-5.466-14.377-10.55-28.187-14.506-40.996c-4.02-12.787-6.817-24.592-8.508-34.616c-1.673-10.033-2.272-18.266-2.259-23.951
		c0.019-5.685,0.401-8.81,0.729-8.808c0.892-0.013,0.89,12.502,5.178,32.055c2.126,9.769,5.241,21.276,9.471,33.84
		c4.162,12.583,9.342,26.237,14.808,40.614c5.743,14.398,9.445,28.754,13.611,41.251c2.081,6.27,4.254,12.133,6.665,17.436
		c2.4,5.322,4.938,10.172,7.336,14.576c4.818,8.797,8.872,15.93,11.311,21.05C509.035,929.616,510.069,932.596,509.758,932.746z"/>
	<path fill="#EBE6E8" d="M721.032,60.298c0.292,0.234-0.088,1.22-0.736,2.942c-0.684,1.719-1.517,4.225-2.99,7.408
		c-1.622,3.149-3.479,6.454-5.474,10.406c-2.012,3.905-4.046,8.212-6.236,12.842c-8.864,18.46-17.112,32.922-18.425,32.302
		c-1.311-0.621,4.809-16.087,13.671-34.543c2.186-4.625,4.456-9.077,6.747-12.931c2.235-3.848,4.636-7.31,6.481-9.902
		c1.755-2.698,3.19-5.137,4.466-6.622C719.792,60.686,720.76,60.076,721.032,60.298z"/>
</g>
</svg>
